<svg width="28" height="26" viewBox="0 0 28 26" fill="none" xmlns="http://www.w3.org/2000/svg">
<g clip-path="url(#clip0_398_128)">
<g clip-path="url(#clip1_398_128)">
<path d="M23.8706 0.5H4.12916C2.13769 0.5 0.523193 2.1145 0.523193 4.10597V15.8225C0.523193 17.814 2.13769 19.4285 4.12916 19.4285H11.1012L13.4735 25.0164C13.4735 25.0164 13.6372 25.5 14.0313 25.5C14.4273 25.5 14.5891 25.0164 14.5891 25.0164L16.9614 19.4285H23.8706C25.8621 19.4285 27.4766 17.814 27.4766 15.8225V4.10597C27.4766 2.1145 25.8621 0.5 23.8706 0.5ZM8.9898 10.8572C8.97838 12.999 6.76415 13.06 6.76415 13.06C5.9074 13.06 5.42381 12.4926 5.42381 12.4926V12.8791H3.81121V6.22691C3.81121 6.22691 3.8036 6.225 3.81121 6.2231V6.22691C3.91212 6.24214 5.42381 6.2231 5.42381 6.2231V8.7667C5.80269 8.11937 6.89933 8.1308 6.89933 8.1308C9.28681 8.35355 8.9879 10.8572 8.9879 10.8572H8.9898ZM11.8304 8.33642V12.8905H10.2521V8.38211C10.2521 7.76906 9.49052 7.59771 9.49052 7.59771V6.00796C12.0113 6.11077 11.8304 8.33642 11.8304 8.33642ZM15.5716 13.0638C14.1094 13.0638 12.9251 11.9728 12.9251 10.6287C12.9251 9.28456 14.1094 8.19363 15.5716 8.19363C17.0337 8.19363 18.218 9.28456 18.218 10.6287C18.218 11.9728 17.0337 13.0638 15.5716 13.0638ZM24.219 13.0638C24.219 13.0638 24.2419 15.377 21.8906 15.377H21.1747V13.8786H21.6069C21.6069 13.8786 22.595 13.97 22.5836 12.4469C22.5836 12.4469 22.3913 13.0638 21.0053 13.0638C21.0053 13.0638 19.0404 12.9229 19.0404 11.0057V10.2784C19.0404 10.2784 19.0861 8.29072 21.2432 8.1327C21.2432 8.1327 22.0943 8.04131 22.6179 8.74575V8.25836H24.219V13.0657V13.0638Z" fill="white"/>
<path d="M6.40498 9.72546C5.89283 9.72546 5.47778 10.1405 5.47778 10.6527C5.47778 11.1648 5.89283 11.5818 6.40498 11.5818C6.91712 11.5818 7.33217 11.1667 7.33217 10.6527C7.33217 10.1386 6.91712 9.72546 6.40498 9.72546Z" fill="white"/>
<path d="M15.5725 9.62891C15.0204 9.62891 14.573 10.0763 14.573 10.6284C14.573 11.1806 15.0204 11.628 15.5725 11.628C16.1247 11.628 16.5721 11.1806 16.5721 10.6284C16.5721 10.0763 16.1247 9.62891 15.5725 9.62891Z" fill="white"/>
<path d="M21.7111 9.65137C21.1723 9.65137 20.7344 10.0893 20.7344 10.6281C20.7344 11.1669 21.1723 11.6048 21.7111 11.6048C22.2499 11.6048 22.6878 11.1669 22.6878 10.6281C22.6878 10.0893 22.2499 9.65137 21.7111 9.65137Z" fill="white"/>
</g>
</g>
<defs>
<clipPath id="clip0_398_128">
<rect width="26.9534" height="25" fill="white" transform="translate(0.523193 0.5)"/>
</clipPath>
<clipPath id="clip1_398_128">
<rect width="26.9534" height="25" fill="white" transform="translate(0.523193 0.5)"/>
</clipPath>
</defs>
</svg>
