<svg width="28" height="26" viewBox="0 0 28 26" fill="none" xmlns="http://www.w3.org/2000/svg">
<g clip-path="url(#clip0_398_204)">
<g clip-path="url(#clip1_398_204)">
<path d="M23.8709 0.0698242H4.12941C2.13794 0.0698242 0.523438 1.68432 0.523438 3.67579V15.3923C0.523438 17.3838 2.13794 18.9983 4.12941 18.9983H11.1015L13.4737 24.5862C13.4737 24.5862 13.6374 25.0698 14.0315 25.0698C14.4276 25.0698 14.5894 24.5862 14.5894 24.5862L16.9616 18.9983H23.8709C25.8623 18.9983 27.4768 17.3838 27.4768 15.3923V3.67579C27.4768 1.68432 25.8623 0.0698242 23.8709 0.0698242ZM8.99004 10.427C8.97862 12.5689 6.76439 12.6298 6.76439 12.6298C5.90764 12.6298 5.42406 12.0624 5.42406 12.0624V12.4489H3.81146V5.79673C3.81146 5.79673 3.80384 5.79483 3.81146 5.79292V5.79673C3.91236 5.81196 5.42406 5.79292 5.42406 5.79292V8.33652C5.80293 7.6892 6.89957 7.70062 6.89957 7.70062C9.28705 7.92338 8.98814 10.427 8.98814 10.427H8.99004ZM11.8307 7.90624V12.4604H10.2523V7.95194C10.2523 7.33888 9.49077 7.16753 9.49077 7.16753V5.57778C12.0115 5.68059 11.8307 7.90624 11.8307 7.90624ZM15.5718 12.6336C14.1096 12.6336 12.9254 11.5427 12.9254 10.1985C12.9254 8.85438 14.1096 7.76345 15.5718 7.76345C17.034 7.76345 18.2182 8.85438 18.2182 10.1985C18.2182 11.5427 17.034 12.6336 15.5718 12.6336ZM24.2193 12.6336C24.2193 12.6336 24.2421 14.9468 21.8908 14.9468H21.175V13.4485H21.6071C21.6071 13.4485 22.5953 13.5399 22.5838 12.0167C22.5838 12.0167 22.3915 12.6336 21.0055 12.6336C21.0055 12.6336 19.0407 12.4927 19.0407 10.5755V9.84821C19.0407 9.84821 19.0864 7.86055 21.2435 7.70253C21.2435 7.70253 22.0945 7.61114 22.6181 8.31558V7.82818H24.2193V12.6355V12.6336Z" fill="#96A0AA"/>
<path d="M6.40522 9.29529C5.89308 9.29529 5.47803 9.71034 5.47803 10.2225C5.47803 10.7346 5.89308 11.1516 6.40522 11.1516C6.91737 11.1516 7.33242 10.7365 7.33242 10.2225C7.33242 9.70843 6.91737 9.29529 6.40522 9.29529Z" fill="#96A0AA"/>
<path d="M15.5728 9.19873C15.0207 9.19873 14.5732 9.64614 14.5732 10.1983C14.5732 10.7504 15.0207 11.1978 15.5728 11.1978C16.1249 11.1978 16.5723 10.7504 16.5723 10.1983C16.5723 9.64614 16.1249 9.19873 15.5728 9.19873Z" fill="#96A0AA"/>
<path d="M21.7116 9.22119C21.1728 9.22119 20.7349 9.65909 20.7349 10.1979C20.7349 10.7367 21.1728 11.1746 21.7116 11.1746C22.2504 11.1746 22.6883 10.7367 22.6883 10.1979C22.6883 9.65909 22.2504 9.22119 21.7116 9.22119Z" fill="#96A0AA"/>
</g>
</g>
<defs>
<clipPath id="clip0_398_204">
<rect width="26.9534" height="25" fill="white" transform="translate(0.523438 0.0698242)"/>
</clipPath>
<clipPath id="clip1_398_204">
<rect width="26.9534" height="25" fill="white" transform="translate(0.523438 0.0698242)"/>
</clipPath>
</defs>
</svg>
