<svg width="24" height="25" viewBox="0 0 24 25" fill="none" xmlns="http://www.w3.org/2000/svg">
<path d="M20.4 5.96982C20.4 6.96394 19.5941 7.76982 18.6 7.76982C17.6059 7.76982 16.8 6.96394 16.8 5.96982C16.8 4.97571 17.6059 4.16982 18.6 4.16982C19.5941 4.16982 20.4 4.97571 20.4 5.96982Z" fill="#96A0AA"/>
<path fill-rule="evenodd" clip-rule="evenodd" d="M12 18.5698C15.3137 18.5698 18 15.8835 18 12.5698C18 9.25612 15.3137 6.56982 12 6.56982C8.68629 6.56982 6 9.25612 6 12.5698C6 15.8835 8.68629 18.5698 12 18.5698ZM12 16.1698C13.9882 16.1698 15.6 14.5581 15.6 12.5698C15.6 10.5816 13.9882 8.96982 12 8.96982C10.0118 8.96982 8.4 10.5816 8.4 12.5698C8.4 14.5581 10.0118 16.1698 12 16.1698Z" fill="#96A0AA"/>
<path fill-rule="evenodd" clip-rule="evenodd" d="M0 12.0898C0 8.05745 0 6.04126 0.784753 4.50109C1.47504 3.14633 2.5765 2.04487 3.93127 1.35458C5.47143 0.569824 7.48762 0.569824 11.52 0.569824H12.48C16.5124 0.569824 18.5286 0.569824 20.0687 1.35458C21.4235 2.04487 22.525 3.14633 23.2152 4.50109C24 6.04126 24 8.05745 24 12.0898V13.0498C24 17.0822 24 19.0984 23.2152 20.6386C22.525 21.9933 21.4235 23.0948 20.0687 23.7851C18.5286 24.5698 16.5124 24.5698 12.48 24.5698H11.52C7.48762 24.5698 5.47143 24.5698 3.93127 23.7851C2.5765 23.0948 1.47504 21.9933 0.784753 20.6386C0 19.0984 0 17.0822 0 13.0498V12.0898ZM11.52 2.96982H12.48C14.5358 2.96982 15.9333 2.97169 17.0135 3.05995C18.0657 3.14592 18.6038 3.30174 18.9792 3.49299C19.8823 3.95319 20.6166 4.68749 21.0768 5.59067C21.2681 5.96603 21.4239 6.50412 21.5099 7.55631C21.5981 8.63653 21.6 10.034 21.6 12.0898V13.0498C21.6 15.1056 21.5981 16.5031 21.5099 17.5833C21.4239 18.6355 21.2681 19.1736 21.0768 19.549C20.6166 20.4522 19.8823 21.1865 18.9792 21.6467C18.6038 21.8379 18.0657 21.9937 17.0135 22.0797C15.9333 22.168 14.5358 22.1698 12.48 22.1698H11.52C9.46421 22.1698 8.06671 22.168 6.98649 22.0797C5.93429 21.9937 5.3962 21.8379 5.02085 21.6467C4.11767 21.1865 3.38336 20.4522 2.92317 19.549C2.73191 19.1736 2.57609 18.6355 2.49012 17.5833C2.40187 16.5031 2.4 15.1056 2.4 13.0498V12.0898C2.4 10.034 2.40187 8.63653 2.49012 7.55631C2.57609 6.50412 2.73191 5.96603 2.92317 5.59067C3.38336 4.68749 4.11767 3.95319 5.02085 3.49299C5.3962 3.30174 5.93429 3.14592 6.98649 3.05995C8.06671 2.97169 9.46421 2.96982 11.52 2.96982Z" fill="#96A0AA"/>
</svg>
