<svg width="26" height="26" viewBox="0 0 26 26" fill="none" xmlns="http://www.w3.org/2000/svg">
<path d="M21.4 6.4C21.4 7.39411 20.5941 8.2 19.6 8.2C18.6059 8.2 17.8 7.39411 17.8 6.4C17.8 5.40589 18.6059 4.6 19.6 4.6C20.5941 4.6 21.4 5.40589 21.4 6.4Z" fill="white"/>
<path fill-rule="evenodd" clip-rule="evenodd" d="M13 19C16.3137 19 19 16.3137 19 13C19 9.68629 16.3137 7 13 7C9.68629 7 7 9.68629 7 13C7 16.3137 9.68629 19 13 19ZM13 16.6C14.9882 16.6 16.6 14.9882 16.6 13C16.6 11.0118 14.9882 9.4 13 9.4C11.0118 9.4 9.4 11.0118 9.4 13C9.4 14.9882 11.0118 16.6 13 16.6Z" fill="white"/>
<path fill-rule="evenodd" clip-rule="evenodd" d="M1 12.52C1 8.48762 1 6.47143 1.78475 4.93127C2.47504 3.5765 3.5765 2.47504 4.93127 1.78475C6.47143 1 8.48762 1 12.52 1H13.48C17.5124 1 19.5286 1 21.0687 1.78475C22.4235 2.47504 23.525 3.5765 24.2152 4.93127C25 6.47143 25 8.48762 25 12.52V13.48C25 17.5124 25 19.5286 24.2152 21.0687C23.525 22.4235 22.4235 23.525 21.0687 24.2152C19.5286 25 17.5124 25 13.48 25H12.52C8.48762 25 6.47143 25 4.93127 24.2152C3.5765 23.525 2.47504 22.4235 1.78475 21.0687C1 19.5286 1 17.5124 1 13.48V12.52ZM12.52 3.4H13.48C15.5358 3.4 16.9333 3.40187 18.0135 3.49012C19.0657 3.57609 19.6038 3.73191 19.9792 3.92317C20.8823 4.38336 21.6166 5.11767 22.0768 6.02085C22.2681 6.3962 22.4239 6.93429 22.5099 7.98649C22.5981 9.06671 22.6 10.4642 22.6 12.52V13.48C22.6 15.5358 22.5981 16.9333 22.5099 18.0135C22.4239 19.0657 22.2681 19.6038 22.0768 19.9792C21.6166 20.8823 20.8823 21.6166 19.9792 22.0768C19.6038 22.2681 19.0657 22.4239 18.0135 22.5099C16.9333 22.5981 15.5358 22.6 13.48 22.6H12.52C10.4642 22.6 9.06671 22.5981 7.98649 22.5099C6.93429 22.4239 6.3962 22.2681 6.02085 22.0768C5.11767 21.6166 4.38336 20.8823 3.92317 19.9792C3.73191 19.6038 3.57609 19.0657 3.49012 18.0135C3.40187 16.9333 3.4 15.5358 3.4 13.48V12.52C3.4 10.4642 3.40187 9.06671 3.49012 7.98649C3.57609 6.93429 3.73191 6.3962 3.92317 6.02085C4.38336 5.11767 5.11767 4.38336 6.02085 3.92317C6.3962 3.73191 6.93429 3.57609 7.98649 3.49012C9.06671 3.40187 10.4642 3.4 12.52 3.4Z" fill="white"/>
</svg>
